<svg xmlns="http://www.w3.org/2000/svg" width="56.067" height="56.067" viewBox="0 0 56.067 56.067">
  <g id="Group_44" data-name="Group 44" transform="translate(-389 -421)">
    <g id="transaction" transform="translate(445.067 421) rotate(90)">
      <path id="Path_25" data-name="Path 25" d="M0,0H1.809V1.809H0Z" transform="translate(42.502 50.641)" fill="#25a4db"/>
      <path id="Path_26" data-name="Path 26" d="M0,0H1.809V1.809H0Z" transform="translate(42.502 47.024)" fill="#25a4db"/>
      <path id="Path_27" data-name="Path 27" d="M0,0H1.809V1.809H0Z" transform="translate(42.502 43.407)" fill="#25a4db"/>
      <path id="Path_28" data-name="Path 28" d="M0,0H1.809V1.809H0Z" transform="translate(11.756 3.617)" fill="#25a4db"/>
      <path id="Path_29" data-name="Path 29" d="M0,0H1.809V1.809H0Z" transform="translate(11.756 7.234)" fill="#25a4db"/>
      <path id="Path_30" data-name="Path 30" d="M0,0H1.809V1.809H0Z" transform="translate(11.756 10.852)" fill="#25a4db"/>
      <path id="Path_31" data-name="Path 31" d="M13.565,0A13.565,13.565,0,1,0,27.129,13.565,13.58,13.58,0,0,0,13.565,0Zm0,25.32A11.756,11.756,0,1,1,25.32,13.565,11.77,11.77,0,0,1,13.565,25.32Z" transform="translate(14.469 14.469)" fill="#25a4db"/>
      <g id="Group_39" data-name="Group 39" transform="translate(28.938 12.66) rotate(90)">
        <path id="Path_33" data-name="Path 33" d="M0,0H1.809V1.809H0Z" transform="translate(28.938)" fill="#25a4db"/>
        <path id="Path_34" data-name="Path 34" d="M0,0H1.809V1.809H0Z" transform="translate(0)" fill="#25a4db"/>
      </g>
      <path id="Path_35" data-name="Path 35" d="M54.258,28.033a3.58,3.58,0,0,0-1.809.5V20.8a2.7,2.7,0,0,0-3.722-2.514,2.706,2.706,0,0,0-5.321.705v1.416A17.112,17.112,0,0,0,17.885,14.2l-.7-.937V0H2.713V11.455L.9,13.867A4.549,4.549,0,0,0,0,16.579V28.033H1.809a3.58,3.58,0,0,0,1.809-.5v7.737a2.7,2.7,0,0,0,3.722,2.514,2.706,2.706,0,0,0,5.321-.705V35.66a17.112,17.112,0,0,0,25.521,6.206l.7.937V56.067H53.354V44.612L55.162,42.2a4.549,4.549,0,0,0,.9-2.713V28.033ZM10.852,37.076a.9.9,0,0,1-1.809,0V28.033H7.234v7.234a.9.9,0,1,1-1.809,0V21.358l.885-.442a6.327,6.327,0,0,0,3.311-4.126l.3-1.2-1.754-.439-.3,1.2A4.517,4.517,0,0,1,5.5,19.3l-1.885.942v4.176a1.81,1.81,0,0,1-1.809,1.809V16.579a2.727,2.727,0,0,1,.543-1.628l2.17-2.894V1.809H15.373V13.866l1.112,1.482a17.121,17.121,0,0,0-5.634,12.686Zm1.809-9.043A15.373,15.373,0,1,1,28.033,43.407,15.39,15.39,0,0,1,12.66,28.033Zm41.6,11.455a2.729,2.729,0,0,1-.543,1.628l-2.17,2.894V54.258H40.694V42.2l-1.112-1.482a17.121,17.121,0,0,0,5.634-12.686V18.99a.9.9,0,1,1,1.809,0v9.043h1.809V20.8a.9.9,0,1,1,1.809,0v13.91l-.885.442a6.327,6.327,0,0,0-3.311,4.126l-.3,1.2,1.754.439.3-1.2a4.517,4.517,0,0,1,2.365-2.948l1.885-.941V31.651a1.81,1.81,0,0,1,1.809-1.809Z" fill="#25a4db"/>
      <path id="Path_36" data-name="Path 36" d="M2.605,1.176C2.091.761,1.554.366,1.011,0L0,1.5c.5.338,1,.7,1.472,1.085Z" transform="translate(40.148 8.523)" fill="#25a4db"/>
      <path id="Path_37" data-name="Path 37" d="M2.713,5.426a2.708,2.708,0,0,0,2.68-2.387A21.983,21.983,0,0,1,19.461,5.372l.869-1.586A23.8,23.8,0,0,0,5,1.271a2.71,2.71,0,1,0-2.29,4.154Zm0-3.617a.9.9,0,1,1-.9.9A.906.906,0,0,1,2.713,1.809Z" transform="translate(18.99 3.617)" fill="#25a4db"/>
      <path id="Path_38" data-name="Path 38" d="M0,1.409c.515.414,1.051.809,1.594,1.176l1.011-1.5C2.1.747,1.608.382,1.133,0Z" transform="translate(13.313 44.959)" fill="#25a4db"/>
      <path id="Path_39" data-name="Path 39" d="M17.617,0a2.708,2.708,0,0,0-2.68,2.387A21.982,21.982,0,0,1,.869.055L0,1.641a23.555,23.555,0,0,0,11.287,2.88,23.763,23.763,0,0,0,4.048-.354A2.71,2.71,0,1,0,17.617,0Zm0,3.617a.9.9,0,1,1,.9-.9A.906.906,0,0,1,17.617,3.617Z" transform="translate(16.747 47.024)" fill="#25a4db"/>
    </g>
    <g id="Group_43" data-name="Group 43" transform="translate(411.549 440.751)">
      <g id="Group_42" data-name="Group 42">
        <path id="Path_41" data-name="Path 41" d="M170.046,131.656h-1.007a4.508,4.508,0,0,0-.844-1.828h1.852a.914.914,0,0,0,0-1.828h-9.139a.914.914,0,0,0,0,1.828h3.656a2.737,2.737,0,0,1,2.574,1.828h-6.229a.914.914,0,0,0,0,1.828h6.229a2.737,2.737,0,0,1-2.574,1.828h-3.656a.914.914,0,0,0-.844.565.907.907,0,0,0,0,.7.871.871,0,0,0,.2.3l7.31,7.31a.914.914,0,1,0,1.294-1.29l-5.752-5.752h1.449a4.574,4.574,0,0,0,4.476-3.656h1.007a.914.914,0,0,0,0-1.828Z" transform="translate(-159.992 -128)" fill="#25a4db"/>
      </g>
    </g>
  </g>
</svg>
