<svg xmlns="http://www.w3.org/2000/svg" width="83.119" height="49.177" viewBox="0 0 83.119 49.177">
  <g id="Group_142" data-name="Group 142" transform="translate(-801 -343.29)">
    <g id="rupee_1_" data-name="rupee (1)" transform="translate(801 343.29)">
      <path id="Path_74" data-name="Path 74" d="M206.357,90.611a.8.8,0,0,0,0-1.607h-8.007a.8.8,0,1,0,0,1.607h2.29a2.545,2.545,0,0,1,2.505,1.741h-4.8a.8.8,0,1,0,0,1.607h4.8a2.662,2.662,0,0,1-2.505,1.875h-2.29a.8.8,0,0,0-.552,1.377l5.726,5.409a.8.8,0,0,0,1.1-1.162l-4.258-4.016h.27A4.234,4.234,0,0,0,204.8,93.96h1.554a.8.8,0,0,0,0-1.607H204.8a4.03,4.03,0,0,0-.842-1.741Zm0,0" transform="translate(-171.086 -77.083)" fill="#25a4db"/>
      <path id="Path_75" data-name="Path 75" d="M85.13,37.777c-2.214-.036-3.717-.516-4.732-1.511-1.108-1.086-1.679-2.884-1.744-5.462a.818.818,0,0,0-.8-.8H37.8a.819.819,0,0,0-.8.8c-.152,5.918-1.651,6.906-5.231,6.963A.793.793,0,0,0,31,38.58V51.014a.785.785,0,0,0,.769.8c3.748.061,5.094,1.146,5.242,6.98a.817.817,0,0,0,.793.809H77.777a.826.826,0,0,0,.8-.808c.125-4.867,2.02-6.895,6.55-6.967a.812.812,0,0,0,.787-.817V38.58a.8.8,0,0,0-.788-.8Zm-.82,12.467c-4.554.317-6.961,2.8-7.3,7.755H38.577c-.134-2.813-.576-4.554-1.49-5.738a5.709,5.709,0,0,0-4.481-2.017V39.35c4.554-.336,5.751-3.05,5.972-7.738H77.083c.176,2.679.893,4.517,2.188,5.786a7.792,7.792,0,0,0,5.039,1.954Zm0,0" transform="translate(-26.846 -25.986)" fill="#25a4db"/>
      <path id="Path_76" data-name="Path 76" d="M159.3,54.836A11.467,11.467,0,1,0,170.766,66.3,11.467,11.467,0,0,0,159.3,54.836Zm0,21.326a9.859,9.859,0,1,1,9.859-9.859A9.859,9.859,0,0,1,159.3,76.162Zm0,0" transform="translate(-128.031 -47.491)" fill="#25a4db"/>
      <path id="Path_77" data-name="Path 77" d="M65.568,4.022H62.42V.87A.819.819,0,0,0,61.666,0H.871A.918.918,0,0,0,0,.87V36.761a.819.819,0,0,0,.871.748H4.018v3.153a.818.818,0,0,0,.753.865h60.8a.805.805,0,0,0,.737-.865V4.771a.7.7,0,0,0-.737-.749ZM1.607,1.611H60.812V35.9H1.607ZM64.7,39.92H5.626V37.509H61.666a.717.717,0,0,0,.753-.748V5.63H64.7Zm0,0" transform="translate(0 -0.004)" fill="#25a4db"/>
    </g>
    <g id="Group_141" data-name="Group 141" transform="translate(846.151 354.499)">
      <g id="Group_140" data-name="Group 140" transform="translate(-0.047 -0.047)">
        <circle id="Ellipse_12" data-name="Ellipse 12" cx="18.983" cy="18.983" r="18.983" fill="#fff"/>
        <path id="Path_79" data-name="Path 79" d="M32.393,5.558A18.976,18.976,0,1,0,5.558,32.393,18.976,18.976,0,1,0,32.393,5.558ZM31.6,31.6A17.851,17.851,0,1,1,6.353,6.353,17.851,17.851,0,1,1,31.6,31.6ZM30.8,7.148A16.727,16.727,0,0,0,7.148,30.8,16.73,16.73,0,0,0,33.715,26.89a.562.562,0,0,0-.991-.533,15.52,15.52,0,1,1,.956-2.156.562.562,0,1,0,1.06.377A16.749,16.749,0,0,0,30.8,7.148Z" transform="translate(0.064 0.064)" fill="#25a4db"/>
      </g>
      <g id="Group_139" data-name="Group 139" transform="translate(16.051 6.057)">
        <path id="Path_80" data-name="Path 80" d="M12.96,6.006a3.126,3.126,0,0,0-3.1,3.354l1.108,13.891a2,2,0,0,0,3.978,0l.249-3.124a.843.843,0,0,0-1.681-.134l-.249,3.124a.309.309,0,0,1-.617,0L11.544,9.226a1.421,1.421,0,1,1,2.834,0l-.611,7.661a.843.843,0,0,0,1.681.134l.611-7.661A3.139,3.139,0,0,0,12.96,6.006Zm0,20.691a2.653,2.653,0,1,0,2.653,2.653A2.656,2.656,0,0,0,12.96,26.7Zm0,3.62a.967.967,0,1,1,.967-.967A.968.968,0,0,1,12.96,30.317Z" transform="translate(-9.852 -6.006)" fill="#25a4db"/>
      </g>
    </g>
  </g>
</svg>
