<svg xmlns="http://www.w3.org/2000/svg" width="21.724" height="21.729" viewBox="0 0 21.724 21.729">
  <g id="Group_132" data-name="Group 132" transform="translate(-841.182 -2574.183)">
    <g id="instagram_5_" data-name="instagram (5)" transform="translate(841.182 2574.183)">
      <path id="Path_67" data-name="Path 67" d="M22.118,6.388a7.94,7.94,0,0,0-.505-2.636A5.566,5.566,0,0,0,18.433.573,7.96,7.96,0,0,0,15.8.068C14.634.013,14.265,0,11.315,0S8,.013,6.837.064A7.942,7.942,0,0,0,4.2.569,5.3,5.3,0,0,0,2.274,1.825,5.35,5.35,0,0,0,1.022,3.748,7.961,7.961,0,0,0,.517,6.384C.461,7.547.449,7.916.449,10.866s.013,3.319.064,4.478a7.939,7.939,0,0,0,.505,2.636A5.565,5.565,0,0,0,4.2,21.16a7.961,7.961,0,0,0,2.636.505c1.159.051,1.528.064,4.478.064s3.319-.013,4.478-.064a7.938,7.938,0,0,0,2.636-.505A5.558,5.558,0,0,0,21.6,17.981a7.966,7.966,0,0,0,.505-2.636c.051-1.159.064-1.528.064-4.478s0-3.319-.055-4.478ZM20.161,15.26a5.956,5.956,0,0,1-.374,2.016,3.6,3.6,0,0,1-2.063,2.063,5.977,5.977,0,0,1-2.016.373c-1.146.051-1.49.064-4.389.064s-3.247-.013-4.389-.064a5.953,5.953,0,0,1-2.016-.373,3.344,3.344,0,0,1-1.248-.811,3.378,3.378,0,0,1-.811-1.248,5.978,5.978,0,0,1-.373-2.016c-.051-1.146-.064-1.49-.064-4.389s.013-3.247.064-4.389A5.953,5.953,0,0,1,2.855,4.47,3.3,3.3,0,0,1,3.67,3.222a3.373,3.373,0,0,1,1.248-.811,5.981,5.981,0,0,1,2.016-.374c1.146-.051,1.49-.064,4.389-.064s3.247.013,4.389.064a5.956,5.956,0,0,1,2.016.374,3.341,3.341,0,0,1,1.248.811,3.377,3.377,0,0,1,.811,1.248,5.98,5.98,0,0,1,.374,2.016c.051,1.146.064,1.49.064,4.389s-.013,3.239-.064,4.385Zm0,0" transform="translate(-0.449 0)" fill="#fff"/>
      <path id="Path_68" data-name="Path 68" d="M130.531,124.5a5.582,5.582,0,1,0,5.582,5.582A5.583,5.583,0,0,0,130.531,124.5Zm0,9.2a3.621,3.621,0,1,1,3.621-3.621A3.621,3.621,0,0,1,130.531,133.7Zm0,0" transform="translate(-119.664 -119.215)" fill="#fff"/>
      <path id="Path_69" data-name="Path 69" d="M365.056,89.9a1.3,1.3,0,1,1-1.3-1.3A1.3,1.3,0,0,1,365.056,89.9Zm0,0" transform="translate(-347.084 -84.841)" fill="#fff"/>
    </g>
  </g>
</svg>
