<svg xmlns="http://www.w3.org/2000/svg" width="43.1" height="56.067" viewBox="0 0 43.1 56.067">
  <g id="Outline" transform="translate(-127.021 -15.949)">
    <path id="Path_22" data-name="Path 22" d="M156.118,59.022a23.468,23.468,0,0,0,11.122-2.558,3.959,3.959,0,0,0,1.664-.98c1.288-1.288,2.174-4.053-.658-9.933V24.361a4.67,4.67,0,1,0-6.538-6.538H140.517c-5.88-2.832-8.645-1.945-9.933-.658a3.959,3.959,0,0,0-.979,1.66,22.83,22.83,0,0,0-2.329,7.272l1.849.27a21.63,21.63,0,0,1,.663-3.024,23.84,23.84,0,0,0,1.838,4.533,63.9,63.9,0,0,0,11.51,15.056,63.9,63.9,0,0,0,15.056,11.51,23.843,23.843,0,0,0,4.524,1.836,22.415,22.415,0,0,1-6.58.9,27.769,27.769,0,0,1-18.947-8.3,29.083,29.083,0,0,1-6.494-9.863,25.486,25.486,0,0,1-1.76-10.853l-1.865-.121A27.363,27.363,0,0,0,128.957,39.7a31.18,31.18,0,0,0,15,16.338v2.9h-3.737V55.2h-1.869v3.737h-1.869a.934.934,0,0,0-.934.934v3.318l-8.1,7.2a.934.934,0,0,0,.621,1.633h5.606a.934.934,0,0,0,.621-.236l1.837-1.633h2.681v.934a.934.934,0,0,0,.934.934h4.672a.934.934,0,0,0,.934-.934v-.934h2.682l1.837,1.633a.934.934,0,0,0,.621.236H156.1a.934.934,0,0,0,.621-1.633l-8.1-7.2V59.869a.934.934,0,0,0-.934-.934h-1.869V56.887A27.847,27.847,0,0,0,156.118,59.022Zm10.259-16.877a68.43,68.43,0,0,0-9.37-11.762l5.861-5.861a4.666,4.666,0,0,0,3.509.683Zm-.934-24.322a2.8,2.8,0,1,1-2.8,2.8A2.8,2.8,0,0,1,165.443,17.823Zm-3.9,5.377-5.861,5.861a68.434,68.434,0,0,0-11.762-9.37h16.941a4.666,4.666,0,0,0,.682,3.509ZM133.29,27.022c-1.15-2.239-4.215-9.2.658-9.2a15.592,15.592,0,0,1,6.494,2.048,60.92,60.92,0,0,1,13.924,10.512L143.8,40.946A60.913,60.913,0,0,1,133.29,27.022Zm11.834,15.245L155.686,31.7A60.92,60.92,0,0,1,166.2,45.629c1.3,2.53,3.842,7.235.362,9.082-1.59.407-4.265-.263-7.513-1.931A60.911,60.911,0,0,1,145.123,42.267Zm-11.8,27.879h-2.793l6.307-5.606h1.981v.722Zm4.915-1.869.579-.515v.515Zm5.251,1.869h-2.8V64.541h2.8Zm1.869-1.869v-.515l.579.515Zm5.494,1.869-5.494-4.884v-.722h1.981l6.307,5.606Zm-4.093-7.475h-9.343V60.8h9.343Z" transform="translate(0)" fill="#25a4db"/>
    <path id="Path_23" data-name="Path 23" d="M161.871,151.2l-1.859.187c.056.561.39,2.513.484,2.92l1.821-.421C162.23,153.511,161.923,151.715,161.871,151.2Z" transform="translate(-29.138 -119.455)" fill="#25a4db"/>
    <path id="Path_24" data-name="Path 24" d="M175.4,197.59a25.008,25.008,0,0,1-5.248-9.133l-1.783.559a26.893,26.893,0,0,0,5.641,9.822Z" transform="translate(-36.517 -152.361)" fill="#25a4db"/>
  </g>
</svg>
