<svg xmlns="http://www.w3.org/2000/svg" width="24.703" height="20.071" viewBox="0 0 24.703 20.071">
  <g id="twitter_4_" data-name="twitter (4)" transform="translate(-16.723 -48)">
    <g id="Group_133" data-name="Group 133" transform="translate(16.723 48)">
      <path id="Path_70" data-name="Path 70" d="M24.7,50.376a10.559,10.559,0,0,1-2.918.8,5.036,5.036,0,0,0,2.228-2.8A10.121,10.121,0,0,1,20.8,49.6a5.064,5.064,0,0,0-8.76,3.463,5.215,5.215,0,0,0,.117,1.155,14.335,14.335,0,0,1-10.439-5.3,5.066,5.066,0,0,0,1.556,6.769,5,5,0,0,1-2.288-.624v.056A5.088,5.088,0,0,0,5.046,60.1a5.055,5.055,0,0,1-1.328.167,4.478,4.478,0,0,1-.959-.086,5.113,5.113,0,0,0,4.732,3.528,10.176,10.176,0,0,1-6.279,2.16A9.484,9.484,0,0,1,0,65.8a14.257,14.257,0,0,0,7.769,2.273A14.315,14.315,0,0,0,22.183,53.66c0-.224-.008-.44-.019-.655A10.1,10.1,0,0,0,24.7,50.376Z" transform="translate(0 -48)" fill="#fff"/>
    </g>
  </g>
</svg>
