<svg xmlns="http://www.w3.org/2000/svg" width="67.532" height="44.043" viewBox="0 0 67.532 44.043">
  <g id="user" transform="translate(0 -85.333)">
    <g id="Group_52" data-name="Group 52" transform="translate(23.489 85.333)">
      <g id="Group_51" data-name="Group 51" transform="translate(0 0)">
        <path id="Path_42" data-name="Path 42" d="M180.943,85.333A10.277,10.277,0,1,0,191.219,95.61,10.288,10.288,0,0,0,180.943,85.333Zm0,17.617a7.34,7.34,0,1,1,7.34-7.34A7.351,7.351,0,0,1,180.943,102.95Z" transform="translate(-170.666 -85.333)" fill="#25a4db"/>
      </g>
    </g>
    <g id="Group_54" data-name="Group 54" transform="translate(46.979 97.078)">
      <g id="Group_53" data-name="Group 53" transform="translate(0 0)">
        <path id="Path_43" data-name="Path 43" d="M348.674,170.667a7.34,7.34,0,1,0,7.34,7.34A7.351,7.351,0,0,0,348.674,170.667Zm0,11.745a4.4,4.4,0,1,1,4.4-4.4A4.41,4.41,0,0,1,348.674,182.412Z" transform="translate(-341.334 -170.667)" fill="#25a4db"/>
      </g>
    </g>
    <g id="Group_56" data-name="Group 56" transform="translate(6.081 97.078)">
      <g id="Group_55" data-name="Group 55" transform="translate(0 0)">
        <path id="Path_44" data-name="Path 44" d="M51.522,170.667a7.34,7.34,0,1,0,7.34,7.34A7.349,7.349,0,0,0,51.522,170.667Zm0,11.745a4.4,4.4,0,1,1,4.4-4.4A4.41,4.41,0,0,1,51.522,182.412Z" transform="translate(-44.182 -170.667)" fill="#25a4db"/>
      </g>
    </g>
    <g id="Group_58" data-name="Group 58" transform="translate(14.681 108.822)">
      <g id="Group_57" data-name="Group 57">
        <path id="Path_45" data-name="Path 45" d="M125.751,256a19.107,19.107,0,0,0-19.085,19.085,1.468,1.468,0,0,0,2.936,0,16.149,16.149,0,1,1,32.3,0,1.468,1.468,0,0,0,2.936,0A19.107,19.107,0,0,0,125.751,256Z" transform="translate(-106.666 -256)" fill="#25a4db"/>
      </g>
    </g>
    <g id="Group_60" data-name="Group 60" transform="translate(46.769 114.695)">
      <g id="Group_59" data-name="Group 59">
        <path id="Path_46" data-name="Path 46" d="M347.363,298.667a13.214,13.214,0,0,0-6.844,1.909,1.468,1.468,0,1,0,1.524,2.51,10.279,10.279,0,0,1,15.6,8.794,1.468,1.468,0,0,0,2.936,0A13.229,13.229,0,0,0,347.363,298.667Z" transform="translate(-339.813 -298.667)" fill="#25a4db"/>
      </g>
    </g>
    <g id="Group_62" data-name="Group 62" transform="translate(0 114.695)">
      <g id="Group_61" data-name="Group 61">
        <path id="Path_47" data-name="Path 47" d="M20.054,300.573A13.217,13.217,0,0,0,0,311.88a1.468,1.468,0,0,0,2.936,0,10.28,10.28,0,0,1,15.594-8.8,1.468,1.468,0,0,0,1.524-2.51Z" transform="translate(0 -298.667)" fill="#25a4db"/>
      </g>
    </g>
  </g>
</svg>
